<svg xmlns="http://www.w3.org/2000/svg" viewBox="0 0 90 90">
  <path fill="#ffffff" d="M 42.842 16 H 20.737 c -0.868 0 -1.579 0.711 -1.579 1.579 v 9.474 c 0 0.395 0.158 0.789 0.474 1.105 l 9.474 9.474 c 0.316 0.316 0.711 0.474 1.105 0.474 h 12.632 c 4.342 0 7.895 3.553 7.895 7.895 s -3.553 7.895 -7.895 7.895 H 25.474 c -0.868 0 -1.579 0.711 -1.579 1.579 v 9.474 c 0 0.395 0.158 0.789 0.474 1.105 l 9.474 9.474 C 34.158 75.842 34.553 76 34.947 76 h 7.895 c 16.579 0 30 -13.421 30 -30 S 59.421 16 42.842 16 z M 22.316 21.368 l 6.316 6.316 v 4.974 l -6.316 -6.316 V 21.368 z M 53.895 46 c 0 -6.079 -4.974 -11.053 -11.053 -11.053 H 31.789 v -6.316 h 11.053 c 9.553 0 17.368 7.816 17.368 17.368 s -7.816 17.368 -17.368 17.368 h -7.263 l -6.316 -6.316 h 13.579 C 48.921 57.053 53.895 52.079 53.895 46 z M 27.053 59.263 l 6.316 6.316 v 4.974 l -6.316 -6.316 V 59.263 z M 42.842 72.842 h -6.316 v -6.316 h 6.316 c 11.289 0 20.526 -9.237 20.526 -20.526 s -9.237 -20.526 -20.526 -20.526 h -12 l -6.316 -6.316 h 18.316 c 14.763 0 26.842 12.079 26.842 26.842 S 57.605 72.842 42.842 72.842 z"/>
</svg>
